<svg viewBox="0 0 61 80" xmlns="http://www.w3.org/2000/svg">
  <g fill="#000" fill-rule="nonzero">
    <path d="M58.5 7.9999996h-6v-6c.0003186-.5305302-.2102928-1.0394232-.5854346-1.414565C51.5394236.2102928 51.0305306-4e-7 50.5-4e-7h-44c-3.3122007.0036378-5.9963626 2.6877997-6 6v68c.0036374 3.3122011 2.6877993 5.996363 6 6h52c.5305306 0 1.0394236-.2102924 1.4145654-.5854342.3751418-.3751418.5854346-.8840348.5854346-1.4145658v-68c0-.5305302-.2102928-1.0394232-.5854346-1.414565-.3751418-.3751418-.8840348-.5857532-1.4145654-.585435ZM6.5 4h42v4h-42c-1.1045695 0-2-.8954305-2-2s.8954305-2 2-2Zm50 72h-50c-1.1039756-.0014324-1.9985676-.8960244-2-2V11.6316A5.930801 5.930801 0 0 0 6.5 12h50v64Z"/>
    <path d="M34.4999996 19.9999996c-.5305302 0-1.0394232.2102932-1.414565.585435-.3751418.3751418-.5857532.8840348-.585435 1.414565v44c0 1.1045699.8954309 2 2 2 1.1045699 0 2-.8954301 2-2v-18h10c.530531.000319 1.039424-.2102924 1.4145658-.5854342.3751418-.3751418.5857532-.8840348.5854342-1.4145658v-12c-.0093667-7.7281028-6.2718964-13.9906325-14-14ZM44.5 44h-8V24.2012c4.6525839.9564585 7.9937822 5.0489252 8 9.7988v10ZM20.5 20c-5.1523 0-8 8.2773-8 14 0 6.0662 2.9138 8.8813 6 9.7041V66c0 1.1045695.8954305 2 2 2s2-.8954305 2-2V43.7041c3.0862-.8228 6-3.6379 6-9.7041 0-5.7227-2.8477-14-8-14Zm0 20c-3.48 0-4-3.76-4-6 0-5.4727 2.6484-10 4-10s4 4.5273 4 10c0 2.24-.5195 6-4 6Z"/>
  </g>
</svg>
